<svg width="317" height="298" viewBox="0 0 317 298" fill="none" xmlns="http://www.w3.org/2000/svg">
<g clip-path="url(#clip0_3_9)">
<mask id="path-1-outside-1_3_9" maskUnits="userSpaceOnUse" x="8" y="7" width="256" height="297" fill="black">
<rect fill="white" x="8" y="7" width="256" height="297"/>
<path d="M139.75 15H146.75L156.25 15.75L166.25 17.5L175.25 20L179 21.25L186.75 24.5L191.5 26.75L197.25 30L200.75 32L208.5 37.25L211.5 39.5L215.5 42.75L219 45.5L221.25 47.75L222.75 49L224.25 50.75L225.5 52L226.75 53L228.5 55L231.25 58L234 61.5L236.25 64L239.75 69L243.5 74.75L245.5 78.25L248 82.75L250 86.75L253.5 94.75L255 98.5L254.5 99.5L252 102L249.25 104.25L245.5 107.75L239.5 113.25L236.75 115.5L234.75 117.5L232.75 119.25L231 121L228.25 123.25L225.75 125.75H225.25L224.5 122.75L222.5 115.25L220 108.5L217.25 102L212.75 93L209.5 88L207.5 85L204 80.25L201.25 76.75L199 74.25L195.5 70.5L193.5 68.75L189.5 65.5L186.25 63L180.75 59.5L176.25 57L169.25 53.75L161.75 51.25L154.5 49.75L151.25 49.25L144.75 48.75L138.5 49L132.75 49.5L126.25 50.75L120.25 52.25L114.75 54.25L108.5 57L103.5 59.75L98 63.25L94.75 65.75L89.25 70.25L86.75 72.5L83.75 75.25L82 77.25L79.25 80L74 87L70.5 91.75L67 98.25L64 104L61.25 110.75L58.75 117.5L55.5 129L54.25 135.25L52.75 145.75L52 158V167.75L52.5 177L53.5 185L55 194L57.75 206.25L60 213.5L63 222L67 231L69.75 236.75L73.75 243.5L76 247.25L79.5 252L82.75 256.5L85 259L87 261.5L90 265L91.75 267L95.25 270.5L97.25 272.25L100 274.75L103.25 277.25L106.25 279.5L111 283L115.5 285.75L121.75 289.5L130.25 293.75L132 294.5L131.75 295L119.25 293.5L108.5 291L102.25 289.25L95 286.25L89 283.75L85.25 281.75L81.25 279.75L76 277L71.75 274L66.75 270.5L63.75 268.25L60.75 265.5L58.75 263.75L57 262L55 260.25L52.5 258L50.75 256.25L49 254.25L46.75 251.75L44.75 249.25L42.25 246L39.5 242L37.75 239.5L35.25 235.5L31.75 229.5L29.75 225.5L26.5 218.25L23.75 210.75L21.25 203.25L19.75 197L17.75 187L16.25 176.5L16 174V147.5L16.5 141L17.75 131.5L19.5 122L21 115.25L23.5 107L26 100L29 92.5L32 86.25L34.75 80.75L36.75 77.25L40.25 71.75L43.25 67.25L45.75 64L51.25 57L55 53L56.75 51.25L58.5 49.25L62 45.75L64.75 43.5L68 40.75L71.25 38.25L76.25 34.75L80.5 32L86.5 28.75L90.25 26.75L96 24.25L103.25 21.5L108 20L116.75 17.75L122.25 16.75L129.25 15.75L139.75 15Z"/>
</mask>
<path d="M139.75 15H146.75L156.25 15.75L166.25 17.5L175.25 20L179 21.25L186.75 24.5L191.5 26.75L197.25 30L200.75 32L208.5 37.25L211.5 39.5L215.5 42.75L219 45.5L221.25 47.75L222.75 49L224.25 50.75L225.5 52L226.75 53L228.5 55L231.25 58L234 61.5L236.25 64L239.75 69L243.5 74.75L245.5 78.25L248 82.75L250 86.75L253.5 94.75L255 98.5L254.5 99.5L252 102L249.25 104.25L245.5 107.75L239.5 113.25L236.75 115.5L234.75 117.5L232.75 119.25L231 121L228.25 123.25L225.75 125.75H225.25L224.5 122.75L222.5 115.25L220 108.5L217.25 102L212.75 93L209.5 88L207.5 85L204 80.25L201.25 76.75L199 74.25L195.5 70.5L193.5 68.75L189.5 65.5L186.25 63L180.75 59.5L176.25 57L169.25 53.75L161.75 51.25L154.5 49.75L151.25 49.25L144.75 48.75L138.5 49L132.75 49.5L126.25 50.75L120.25 52.25L114.75 54.25L108.5 57L103.5 59.75L98 63.25L94.75 65.75L89.25 70.25L86.75 72.5L83.75 75.25L82 77.25L79.25 80L74 87L70.5 91.75L67 98.25L64 104L61.25 110.75L58.75 117.5L55.5 129L54.25 135.25L52.75 145.75L52 158V167.75L52.5 177L53.5 185L55 194L57.75 206.25L60 213.5L63 222L67 231L69.75 236.75L73.75 243.5L76 247.25L79.5 252L82.75 256.5L85 259L87 261.5L90 265L91.75 267L95.25 270.5L97.25 272.25L100 274.75L103.25 277.25L106.25 279.5L111 283L115.5 285.75L121.75 289.5L130.25 293.75L132 294.5L131.75 295L119.25 293.5L108.5 291L102.25 289.25L95 286.25L89 283.75L85.25 281.75L81.25 279.75L76 277L71.75 274L66.75 270.5L63.75 268.25L60.75 265.5L58.75 263.75L57 262L55 260.25L52.5 258L50.75 256.25L49 254.25L46.75 251.75L44.75 249.25L42.25 246L39.5 242L37.75 239.5L35.25 235.5L31.75 229.5L29.75 225.5L26.5 218.25L23.75 210.75L21.25 203.25L19.75 197L17.75 187L16.25 176.5L16 174V147.5L16.5 141L17.75 131.5L19.5 122L21 115.25L23.5 107L26 100L29 92.5L32 86.25L34.75 80.75L36.75 77.25L40.25 71.75L43.25 67.25L45.75 64L51.25 57L55 53L56.75 51.25L58.5 49.25L62 45.75L64.75 43.5L68 40.75L71.25 38.25L76.25 34.75L80.5 32L86.5 28.75L90.25 26.75L96 24.25L103.25 21.5L108 20L116.75 17.75L122.25 16.75L129.25 15.75L139.75 15Z" stroke="black" stroke-width="16" mask="url(#path-1-outside-1_3_9)"/>
<mask id="path-2-outside-2_3_9" maskUnits="userSpaceOnUse" x="54.25" y="49.75" width="257" height="253" fill="black">
<rect fill="white" x="54.25" y="49.75" width="257" height="253"/>
<path d="M143.5 58.75L147 59L151.25 59.25L155.5 60L160.75 61.25L167.5 63.75L172.25 66L174.25 67.25L173.25 67.75L165.5 69.25L158.75 71L152.75 73.25L146.75 76L142.5 78.25L137.25 81.5L132 85.5L129.25 88L127.25 89.75L126.25 90.25V90.75L124.5 92.25L122.25 95L120.25 97.25L117.25 101.25L115 104.5L112.5 108.75L110.5 112.25L108.5 116.25L106 122L104.25 126.5L101.75 135.5L100 144.5L99 152.25L98.75 155.25V171.5L99.25 177.5L100.25 184.75L102 192.5L104 199L106.5 206L109.5 212.75L111.25 216.25L114.75 222.25L117.25 225.75L119.5 228.75L121.5 231.25L124.5 234.75L130.5 240.75L134 243.5L137.75 246.5L143 249.75L146.5 251.75L153.25 255L160.75 257.75L167.75 259.5L175.5 260.75L182 261.25L190.75 261L198.75 260L206 258.5L212.75 256.5L219.75 253.75L226.75 250.25L230 248.25L235.25 244.75L238 242.5L240.25 240.75L243.5 237.75L245.5 236L249.5 231.75L252.5 228L255.75 223.5L257.5 220.75L260.25 216.25L263.75 209.25L266.75 202L269.75 193L272.25 183.25L273.25 183.75L275.75 186L277.75 187.75L280.25 190L284 193.25L287.75 196.75L290.5 199L292.25 200.75L294.25 202.5L297.75 205.75L300.5 208L302 209.75L301.75 212L300 216L298.75 219.25L296.75 223.25L294.25 228L292.75 231L289 237.25L286.5 241L284 244.5L281.25 248.25L278.5 251.5L276.25 254.25L274.25 256.25L272.5 258.25L268 262.75L266 264.5L262.75 267.25L259.25 270L254.5 273.5L249 277L244.75 279.5L238 283L230.5 286.25L225.75 288L220.25 289.75L211.25 292L204.5 293.25L197.25 294.25L191 294.75H180L172 294.25L161.25 292.75L148.25 289.5L137 285.5L127 280.75L121 277.25L117 274.75L112.75 271.75L107.5 267.75L103.5 264L103 263.75V263.25L102 262.75L100 260.75L98 259L95 255.5L92.25 252.5L89 248.25L86.5 244.75L84.25 241.5L82.5 239L79.5 233.75L77 229L74.25 223.25L71.5 216.5L67.75 205.25L65.75 197L64 188L62.75 178.25L62.25 171.5V152.75L62.75 146.5L64 138L65.75 129.75L68.25 121L70.75 114.25L73 109L76 103L79 98L81.5 94.25L86 88.25L88.75 85L90.5 83L95.5 78L100.5 74L105 70.75L111 67.25L115 65.25L122 62.25L128.5 60.5L135.5 59.25L143.5 58.75Z"/>
</mask>
<path d="M143.5 58.75L147 59L151.25 59.25L155.5 60L160.75 61.25L167.5 63.75L172.25 66L174.25 67.25L173.25 67.75L165.5 69.25L158.75 71L152.75 73.25L146.75 76L142.5 78.25L137.25 81.5L132 85.5L129.25 88L127.25 89.75L126.25 90.25V90.75L124.5 92.25L122.25 95L120.25 97.25L117.25 101.25L115 104.5L112.5 108.75L110.5 112.25L108.5 116.25L106 122L104.25 126.5L101.75 135.5L100 144.5L99 152.25L98.75 155.25V171.5L99.25 177.5L100.25 184.75L102 192.5L104 199L106.5 206L109.5 212.75L111.25 216.25L114.75 222.25L117.25 225.75L119.5 228.75L121.5 231.25L124.5 234.75L130.5 240.75L134 243.5L137.75 246.5L143 249.75L146.5 251.75L153.25 255L160.75 257.75L167.75 259.5L175.5 260.75L182 261.25L190.75 261L198.75 260L206 258.5L212.75 256.5L219.75 253.75L226.75 250.25L230 248.25L235.25 244.75L238 242.5L240.25 240.75L243.5 237.75L245.5 236L249.5 231.75L252.5 228L255.75 223.5L257.5 220.75L260.25 216.25L263.75 209.25L266.75 202L269.75 193L272.25 183.25L273.25 183.75L275.75 186L277.75 187.75L280.25 190L284 193.25L287.75 196.75L290.5 199L292.25 200.75L294.25 202.5L297.75 205.75L300.5 208L302 209.75L301.75 212L300 216L298.75 219.25L296.75 223.25L294.25 228L292.75 231L289 237.25L286.5 241L284 244.5L281.25 248.25L278.5 251.5L276.25 254.25L274.25 256.25L272.5 258.25L268 262.75L266 264.5L262.75 267.25L259.25 270L254.5 273.5L249 277L244.75 279.5L238 283L230.5 286.25L225.75 288L220.25 289.75L211.25 292L204.5 293.25L197.25 294.25L191 294.75H180L172 294.25L161.25 292.75L148.25 289.5L137 285.5L127 280.75L121 277.25L117 274.75L112.75 271.75L107.5 267.75L103.5 264L103 263.75V263.25L102 262.75L100 260.75L98 259L95 255.5L92.25 252.5L89 248.25L86.5 244.75L84.25 241.5L82.5 239L79.5 233.75L77 229L74.25 223.25L71.5 216.5L67.75 205.25L65.75 197L64 188L62.75 178.25L62.25 171.5V152.75L62.75 146.5L64 138L65.75 129.75L68.25 121L70.75 114.25L73 109L76 103L79 98L81.5 94.25L86 88.25L88.75 85L90.5 83L95.5 78L100.5 74L105 70.75L111 67.25L115 65.25L122 62.25L128.5 60.5L135.5 59.25L143.5 58.75Z" stroke="black" stroke-width="16" mask="url(#path-2-outside-2_3_9)"/>
<path d="M224.5 176.5H221.546L220.677 179.324L219.703 182.488L217.291 189.241L214.664 194.974L212.785 198.496L210.389 202.33L206.576 208.05L204.76 210.093L204.706 210.154L204.654 210.217L202.48 212.875L199.669 215.919L196.6 218.752L193.472 221.4L190.151 224.008L184.462 227.801L178.488 230.908L172.275 233.775L165.174 236.142L157.799 237.808L152.233 238.534L150.884 238.71L149.922 239.672L149.672 239.922L147.353 242.24L149.172 244.969L149.672 245.719L150.282 246.634L151.274 247.109L157.024 249.859L157.249 249.966L157.485 250.045L165.735 252.795L165.971 252.873L166.216 252.922L173.716 254.422L173.94 254.467L174.168 254.486L180.168 254.986L180.334 255H180.5H188.25H188.404L188.557 254.988L191.807 254.738L191.918 254.73L192.029 254.715L195.779 254.215L195.879 254.202L195.978 254.183L202.728 252.933L202.908 252.9L203.083 252.851L211.083 250.601L211.307 250.537L211.523 250.449L215.773 248.699L215.824 248.678L215.875 248.655L220.375 246.655L220.496 246.601L220.613 246.54L225.363 244.04L225.509 243.963L225.647 243.875L231.147 240.375L231.33 240.259L231.499 240.123L235.249 237.123L235.266 237.11L235.283 237.096L238.033 234.846L238.187 234.719L238.328 234.578L241.828 231.078L241.923 230.984L242.01 230.884L243.725 228.924L246.689 225.713L246.828 225.563L246.95 225.4L249.95 221.4L249.999 221.334L250.046 221.266L252.796 217.266L252.846 217.194L252.892 217.12L255.392 213.12L255.493 212.959L255.578 212.789L258.578 206.789L258.634 206.675L258.684 206.559L261.434 200.059L261.495 199.914L261.545 199.765L264.295 191.515L264.339 191.384L264.373 191.25L266.373 183.5L266.437 183.251L266.469 182.996L266.719 180.996L267.281 176.5H262.75H224.5Z" stroke="black" stroke-width="8"/>
<path d="M190.75 11H186.75V15V15.5V18.0475L189.058 19.1247L192.759 20.8519L196.589 22.7668L200.693 25.1807L205.112 27.8813L211.437 32.0171L215.549 35.1615L218.998 37.8709L221.625 40.0202L224.787 42.9392L224.826 42.9753L224.866 43.0103L226.766 44.6726L230.077 47.9842L231.74 49.884L231.765 49.9126L231.79 49.9407L234.22 52.6136L236.404 55.283L236.464 55.3559L236.527 55.4259L238.699 57.8395L240.536 60.1355L243.204 64.0161L243.218 64.0365L243.232 64.0567L246.201 68.2632L248.073 71.0712L250.988 76.4154L251.003 76.4419L251.018 76.4682L254.169 82.0441L256.825 88.0794L260.061 95.7969L260.253 96.2537L260.55 96.65L261.3 97.65L262.5 99.25H264.5H300.25H305.553L304.096 94.1511L303.596 92.4011L303.526 92.1573L303.427 91.9243L301.177 86.6743L301.149 86.6101L301.119 86.5468L299.119 82.2968L299.064 82.1804L299.002 82.0677L295.002 74.8177L294.967 74.7542L294.93 74.692L292.68 70.942L292.643 70.8803L292.604 70.82L289.354 65.82L289.281 65.7074L289.2 65.6L285.45 60.6L285.423 60.564L285.395 60.5287L282.645 57.0287L282.57 56.9333L282.49 56.8425L280.544 54.6537L278.346 51.967L278.219 51.8126L278.078 51.6716L272.078 45.6716L271.984 45.5774L271.884 45.4897L269.928 43.7786L266.472 40.5688L266.351 40.4566L266.221 40.3547L262.721 37.6047L262.714 37.5986L262.706 37.5926L258.206 34.0926L258.09 34.0029L257.969 33.9218L254.257 31.447L251.794 29.7231L251.644 29.618L251.485 29.527L246.235 26.527L246.206 26.5108L246.178 26.4951L241.178 23.7451L241.019 23.6579L240.853 23.5854L232.853 20.0854L232.77 20.0491L232.686 20.0166L226.186 17.5166L226.062 17.469L225.936 17.4297L218.686 15.1797L218.668 15.1741L218.649 15.1687L216.149 14.4187L215.982 14.3684L215.81 14.333L208.56 12.833L208.484 12.8172L208.408 12.8044L200.908 11.5544L200.753 11.5286L200.597 11.515L194.847 11.015L194.674 11H194.5H190.75Z" stroke="black" stroke-width="8"/>
<path d="M264.25 101H262.847L261.751 101.877L260.501 102.877L260.484 102.89L260.467 102.904L257.717 105.154L257.563 105.281L257.422 105.422L254.516 108.327L252.616 109.99L252.516 110.077L252.422 110.172L250.516 112.077L248.616 113.74L248.604 113.75H248.593L248.516 113.827L248.024 114.258L247.963 114.381L247.422 114.922L246.474 115.869L243.071 119.029L241.116 120.74L241.016 120.827L240.922 120.922L238.233 123.61L235.297 126.301L234 127.49V129.25V130V134H238H266.25H266.534L266.816 133.96L268.566 133.71L269.791 133.535L270.703 132.699L273.669 129.98L275.634 128.26L275.734 128.173L275.828 128.078L278.03 125.877L281.682 122.468L283.634 120.76L283.734 120.673L283.828 120.578L285.984 118.423L287.324 117.25H287.407L287.984 116.673L289.25 115.565V115.409L291.134 113.76L291.234 113.673L291.328 113.578L293.484 111.423L295.384 109.76L295.734 109.454L296.005 109.075L297.255 107.325L301.773 101H294H264.25Z" stroke="black" stroke-width="8"/>
</g>
<defs>
<clipPath id="clip0_3_9">
<rect width="317" height="298" fill="white"/>
</clipPath>
</defs>
</svg>
